#!OML:ASF G:\JayActor3\Patient Classification 1\Patient 1\Session 5\male.ASF
:FULLY-SPECIFIED
:DEGREES
793
root 9.75682 17.0777 -9.4982 -373.381 48.1999 -367.553
lowerback 9.68785 -1.30773 3.20234
upperback 2.18989 -1.39025 -0.177845
thorax -3.23334 -0.701423 -1.81535
lowerneck -0.12188 -1.03079 1.31746
upperneck 2.37577 -1.45936 4.45323
head 0.773927 -0.668918 1.13918
rclavicle 1.0871e-015 5.56597e-015
rhumerus -38.7078 -9.49362 -84.0738
rradius 26.8989
rwrist 7.54696
rhand -18.6934 -8.72296
rfingers 7.12502
rthumb 7.60109 -38.5664
lclavicle 1.0871e-015 5.56597e-015
lhumerus -52.4761 50.312 44.897
lradius 8.35876
lwrist -28.7088
lhand -21.258 9.7679
lfingers 7.12502
lthumb 5.12527 39.6859
rfemur -65.6529 3.58746 33.2019
rtibia 141.272
rfoot -12.925 -9.70366
rtoes -15.0048
lfemur 10.9677 11.9638 -18.575
ltibia 2.46493e-014
lfoot -1.61816 -2.26716
ltoes 9.23578
794
root 9.78525 17.0726 -9.4875 -373.359 48.0189 -367.626
lowerback 9.65109 -1.29655 3.22507
upperback 2.19337 -1.374 -0.158837
thorax -3.2085 -0.693149 -1.81114
lowerneck -0.136878 -1.01861 1.34302
upperneck 2.30488 -1.44022 4.40691
head 0.75339 -0.661063 1.12035
rclavicle 5.92503e-014 -2.62396e-014
rhumerus -38.6472 -9.53438 -84.0252
rradius 26.8786
rwrist 7.59001
rhand -18.709 -8.70257
rfingers 7.12502
rthumb 7.58601 -38.5465
lclavicle 5.92503e-014 -2.62396e-014
lhumerus -52.6181 50.3328 44.7788
lradius 8.35799
lwrist -28.8382
lhand -21.0772 9.89975
lfingers 7.12502
lthumb 5.29977 39.8135
rfemur -65.699 4.15859 33.2063
rtibia 141.071
rfoot -13.0195 -9.9751
rtoes -14.9612
lfemur 11.0229 12.1054 -18.5183
ltibia 1.90833e-014
lfoot -1.88242 -2.28816
ltoes 9.04668
795
root 9.81259 17.0665 -9.47719 -373.315 47.8426 -367.668
lowerback 9.61405 -1.28434 3.23127
upperback 2.20036 -1.35836 -0.147667
thorax -3.17973 -0.684958 -1.80571
lowerneck -0.1424 -1.00819 1.37678
upperneck 2.21179 -1.42231 4.35865
head 0.724356 -0.654343 1.09954
rclavicle -1.45361e-015 -1.43125e-014
rhumerus -38.5863 -9.56757 -83.9866
rradius 26.8662
rwrist 7.61694
rhand -18.7341 -8.68445
rfingers 7.12502
rthumb 7.56183 -38.5293
lclavicle -1.45361e-015 -1.43125e-014
lhumerus -52.7446 50.3534 44.6624
lradius 8.35638
lwrist -28.9432
lhand -20.8545 10.0661
lfingers 7.12502
lthumb 5.51481 39.9743
rfemur -65.7468 4.66062 33.1753
rtibia 140.88
rfoot -13.0866 -10.1907
rtoes -14.9848
lfemur 11.0722 12.2477 -18.4888
ltibia 1.03368e-014
lfoot -2.16116 -2.29083
ltoes 8.82994
796
root 9.83893 17.0596 -9.46737 -373.257 47.6703 -367.686
lowerback 9.59788 -1.27064 3.22079
upperback 2.20072 -1.34164 -0.13869
thorax -3.16902 -0.676461 -1.79286
lowerneck -0.138385 -0.998613 1.41459
upperneck 2.11169 -1.40493 4.30427
head 0.69152 -0.64816 1.0762
rclavicle 2.10215e-014 -2.14687e-014
rhumerus -38.5411 -9.58256 -83.9516
rradius 26.8627
rwrist 7.626
rhand -18.761 -8.66691
rfingers 7.12502
rthumb 7.53589 -38.5127
lclavicle 2.10215e-014 -2.14687e-014
lhumerus -52.874 50.3652 44.5419
lradius 8.35551
lwrist -29.0328
lhand -20.6182 10.2203
lfingers 7.12502
lthumb 5.74299 40.1224
rfemur -65.7929 5.09617 33.1158
rtibia 140.7
rfoot -13.1346 -10.3468
rtoes -15.0566
lfemur 11.1195 12.3905 -18.4827
ltibia 2.70347e-014
lfoot -2.45808 -2.28158
ltoes 8.49907
797
root 9.86461 17.052 -9.45808 -373.198 47.4952 -367.694
lowerback 9.60198 -1.25654 3.20842
upperback 2.19595 -1.32376 -0.130391
thorax -3.17479 -0.667678 -1.77939
lowerneck -0.119053 -0.987708 1.45885
upperneck 2.00148 -1.38487 4.24165
head 0.652895 -0.641034 1.0493
rclavicle 2.37051e-014 -1.82882e-014
rhumerus -38.5079 -9.58256 -83.9207
rradius 26.8618
rwrist 7.63006
rhand -18.7767 -8.64635
rfingers 7.12502
rthumb 7.52065 -38.4927
lclavicle 2.37051e-014 -1.82882e-014
lhumerus -53.009 50.3711 44.4123
lradius 8.35657
lwrist -29.1161
lhand -20.4129 10.3097
lfingers 7.12502
lthumb 5.94116 40.2064
rfemur -65.8286 5.48606 33.048
rtibia 140.529
rfoot -13.1704 -10.4574
rtoes -15.183
lfemur 11.1712 12.5378 -18.4863
ltibia -4.77083e-015
lfoot -2.76156 -2.25861
ltoes 8.09835
798
root 9.88991 17.0439 -9.44944 -373.137 47.3159 -367.688
lowerback 9.62351 -1.24 3.19558
upperback 2.18878 -1.30207 -0.124836
thorax -3.19256 -0.657192 -1.76867
lowerneck -0.0898858 -0.976125 1.51266
upperneck 1.88585 -1.36334 4.16843
head 0.610842 -0.633396 1.01759
rclavicle 3.23274e-014 -7.15625e-015
rhumerus -38.4828 -9.57014 -83.8939
rradius 26.8602
rwrist 7.62752
rhand -18.7803 -8.63594
rfingers 7.12502
rthumb 7.51724 -38.4824
lclavicle 3.23274e-014 -7.15625e-015
lhumerus -53.1427 50.3698 44.282
lradius 8.35962
lwrist -29.1904
lhand -20.2441 10.3324
lfingers 7.12502
lthumb 6.1042 40.2245
rfemur -65.8505 5.83331 32.9692
rtibia 140.368
rfoot -13.2083 -10.5289
rtoes -15.329
lfemur 11.2309 12.6919 -18.5023
ltibia -2.62396e-014
lfoot -3.07503 -2.23041
ltoes 7.6295
799
root 9.91491 17.0355 -9.44159 -373.095 47.1262 -367.694
lowerback 9.66175 -1.22327 3.20367
upperback 2.17984 -1.27728 -0.116818
thorax -3.22164 -0.645474 -1.76726
lowerneck -0.0512876 -0.960752 1.57318
upperneck 1.76763 -1.33638 4.08886
head 0.566351 -0.623165 0.98292
rclavicle -8.03463e-014 -7.95139e-016
rhumerus -38.4572 -9.55689 -83.8676
rradius 26.8452
rwrist 7.63369
rhand -18.7721 -8.62744
rfingers 7.12502
rthumb 7.52515 -38.4736
lclavicle -8.03463e-014 -7.95139e-016
lhumerus -53.2708 50.3689 44.1507
lradius 8.36116
lwrist -29.2782
lhand -20.0729 10.3694
lfingers 7.12502
lthumb 6.26945 40.2566
rfemur -65.8567 6.16467 32.916
rtibia 140.214
rfoot -13.2495 -10.5958
rtoes -15.4803
lfemur 11.2986 12.8537 -18.5051
ltibia 7.15625e-015
lfoot -3.38096 -2.20093
ltoes 7.18982
800
root 9.93995 17.0272 -9.43458 -373.078 46.9224 -367.72
lowerback 9.71177 -1.20463 3.24187
upperback 2.17271 -1.24633 -0.106367
thorax -3.25559 -0.630938 -1.78091
lowerneck -0.00733116 -0.944407 1.63721
upperneck 1.64836 -1.30794 4.00589
head 0.520718 -0.612242 0.94672
rclavicle 3.19049e-014 5.56597e-015
rhumerus -38.4278 -9.55572 -83.8369
rradius 26.8138
rwrist 7.65547
rhand -18.7589 -8.62811
rfingers 7.12502
rthumb 7.53789 -38.4738
lclavicle 3.19049e-014 5.56597e-015
lhumerus -53.386 50.3684 44.0276
lradius 8.36001
lwrist -29.3719
lhand -19.9037 10.4318
lfingers 7.12502
lthumb 6.43276 40.3141
rfemur -65.8422 6.49247 32.9007
rtibia 140.061
rfoot -13.2952 -10.6861
rtoes -15.6064
lfemur 11.3779 13.026 -18.4879
ltibia 3.4191e-014
lfoot -3.66879 -2.17229
ltoes 6.81302
801
root 9.96507 17.019 -9.42843 -373.077 46.7072 -367.756
lowerback 9.76363 -1.18572 3.30559
upperback 2.17199 -1.21234 -0.0967742
thorax -3.28419 -0.614915 -1.81028
lowerneck 0.045376 -0.92394 1.69461
upperneck 1.52341 -1.27366 3.93495
head 0.47215 -0.598517 0.915493
rclavicle 6.29029e-014 -3.18055e-015
rhumerus -38.3882 -9.56937 -83.8047
rradius 26.7665
rwrist 7.69288
rhand -18.7497 -8.64206
rfingers 7.12502
rthumb 7.54678 -38.4874
lclavicle 6.29029e-014 -3.18055e-015
lhumerus -53.4848 50.3755 43.912
lradius 8.36099
lwrist -29.484
lhand -19.6895 10.5856
lfingers 7.12502
lthumb 6.63953 40.4615
rfemur -65.8112 6.80669 32.919
rtibia 139.914
rfoot -13.3485 -10.8184
rtoes -15.7103
lfemur 11.4669 13.2075 -18.4559
ltibia -8.74653e-015
lfoot -3.9267 -2.1475
ltoes 6.55993
